<svg xmlns="http://www.w3.org/2000/svg" width="2262" height="406" viewBox="0 0 2262 406" fill="none">
<path d="M27.5268 237.323C29.3605 239.438 31.3352 240.919 33.4509 241.766C35.6137 242.612 37.9175 243.035 40.3624 243.035C42.7132 243.035 44.8525 242.588 46.7802 241.695C48.7078 240.802 50.3534 239.415 51.7169 237.534C53.1274 235.606 54.2088 233.162 54.9611 230.2C55.7133 227.238 56.0894 223.711 56.0894 219.621C56.0894 215.577 55.7603 212.145 55.1021 209.324C54.4909 206.503 53.5976 204.223 52.4222 202.483C51.2938 200.744 49.9068 199.498 48.2612 198.745C46.6156 197.946 44.7819 197.546 42.7602 197.546C39.328 197.546 36.4365 198.228 34.0857 199.592C31.7818 200.908 29.5956 202.859 27.5268 205.445V237.323ZM26.3984 193.315C27.856 191.716 29.4075 190.259 31.0531 188.942C32.6987 187.579 34.4618 186.427 36.3425 185.487C38.2231 184.499 40.2448 183.747 42.4076 183.23C44.5704 182.666 46.9212 182.384 49.4601 182.384C53.3625 182.384 56.9357 183.23 60.1799 184.923C63.4711 186.568 66.2921 188.989 68.6429 192.187C70.9937 195.337 72.8274 199.216 74.1438 203.823C75.4603 208.431 76.1185 213.697 76.1185 219.621C76.1185 225.075 75.3663 230.129 73.8617 234.784C72.4042 239.391 70.312 243.388 67.585 246.773C64.8581 250.158 61.5669 252.815 57.7115 254.742C53.9032 256.623 49.6482 257.563 44.9465 257.563C40.9971 257.563 37.6354 256.976 34.8614 255.8C32.1345 254.625 29.6896 253.026 27.5268 251.004V279.99H8.06194V183.794H20.0512C22.4961 183.794 24.1181 184.923 24.9174 187.179L26.3984 193.315ZM121.436 182.666C126.89 182.666 131.851 183.536 136.317 185.275C140.784 187.015 144.616 189.507 147.813 192.751C151.01 195.948 153.478 199.85 155.218 204.458C156.957 209.066 157.827 214.261 157.827 220.044C157.827 225.827 156.957 231.046 155.218 235.701C153.478 240.308 151.01 244.234 147.813 247.478C144.616 250.722 140.784 253.214 136.317 254.954C131.851 256.693 126.89 257.563 121.436 257.563C115.935 257.563 110.928 256.693 106.415 254.954C101.948 253.214 98.1161 250.722 94.919 247.478C91.7218 244.234 89.2299 240.308 87.4433 235.701C85.7037 231.046 84.8339 225.827 84.8339 220.044C84.8339 214.261 85.7037 209.066 87.4433 204.458C89.2299 199.85 91.7218 195.948 94.919 192.751C98.1161 189.507 101.948 187.015 106.415 185.275C110.928 183.536 115.935 182.666 121.436 182.666ZM121.436 242.965C126.984 242.965 131.098 241.06 133.778 237.252C136.458 233.397 137.798 227.684 137.798 220.114C137.798 212.592 136.458 206.926 133.778 203.118C131.098 199.263 126.984 197.335 121.436 197.335C115.747 197.335 111.563 199.263 108.883 203.118C106.203 206.926 104.863 212.592 104.863 220.114C104.863 227.684 106.203 233.397 108.883 237.252C111.563 241.06 115.747 242.965 121.436 242.965ZM274.103 183.794L251.253 256.505H235.526C234.727 256.505 233.998 256.247 233.34 255.73C232.728 255.212 232.258 254.343 231.929 253.12L220.081 213.767C219.611 212.263 219.188 210.782 218.811 209.324C218.482 207.82 218.177 206.315 217.895 204.811C217.566 206.315 217.213 207.843 216.837 209.395C216.508 210.899 216.108 212.404 215.638 213.908L203.649 253.12C202.99 255.377 201.58 256.505 199.417 256.505H184.466L161.616 183.794H177.131C178.542 183.794 179.717 184.123 180.657 184.781C181.645 185.44 182.303 186.286 182.632 187.32L191.589 223.288C192.153 225.592 192.647 227.825 193.07 229.988C193.493 232.151 193.893 234.29 194.269 236.406C194.833 234.29 195.421 232.151 196.032 229.988C196.69 227.825 197.372 225.592 198.077 223.288L208.726 187.179C209.056 186.192 209.69 185.369 210.631 184.711C211.571 184.053 212.676 183.724 213.945 183.724H222.549C223.913 183.724 225.065 184.053 226.005 184.711C226.992 185.369 227.651 186.192 227.98 187.179L238.276 223.288C238.935 225.545 239.569 227.778 240.181 229.988C240.792 232.151 241.356 234.337 241.873 236.547C242.249 234.384 242.649 232.221 243.072 230.059C243.542 227.849 244.083 225.592 244.694 223.288L254.074 187.32C254.403 186.286 255.038 185.44 255.978 184.781C256.918 184.123 258.023 183.794 259.293 183.794H274.103ZM327.883 211.581C327.883 209.559 327.601 207.632 327.036 205.798C326.519 203.964 325.673 202.342 324.498 200.932C323.322 199.521 321.841 198.416 320.055 197.617C318.268 196.771 316.129 196.348 313.637 196.348C308.982 196.348 305.338 197.664 302.705 200.297C300.072 202.93 298.356 206.691 297.557 211.581H327.883ZM297.275 223.147C297.886 229.964 299.814 234.948 303.058 238.098C306.349 241.248 310.628 242.824 315.894 242.824C318.573 242.824 320.877 242.518 322.805 241.907C324.78 241.248 326.496 240.543 327.953 239.791C329.458 238.992 330.798 238.286 331.973 237.675C333.196 237.017 334.395 236.688 335.57 236.688C337.075 236.688 338.25 237.252 339.096 238.38L344.738 245.433C342.67 247.831 340.389 249.829 337.897 251.428C335.405 252.979 332.82 254.225 330.14 255.165C327.46 256.059 324.756 256.67 322.029 256.999C319.302 257.375 316.669 257.563 314.13 257.563C309.053 257.563 304.304 256.74 299.884 255.095C295.512 253.402 291.68 250.934 288.389 247.69C285.145 244.399 282.582 240.332 280.702 235.489C278.821 230.646 277.881 225.028 277.881 218.633C277.881 213.697 278.68 209.042 280.278 204.67C281.924 200.297 284.275 196.489 287.331 193.244C290.387 190 294.101 187.438 298.474 185.557C302.846 183.63 307.783 182.666 313.284 182.666C317.939 182.666 322.217 183.418 326.12 184.923C330.069 186.38 333.454 188.519 336.275 191.34C339.143 194.161 341.353 197.641 342.905 201.778C344.503 205.868 345.302 210.547 345.302 215.812C345.302 217.27 345.232 218.469 345.091 219.409C344.95 220.35 344.715 221.102 344.386 221.666C344.057 222.23 343.61 222.63 343.046 222.865C342.481 223.053 341.753 223.147 340.859 223.147H297.275ZM375.647 195.783C377.951 191.646 380.607 188.378 383.616 185.98C386.625 183.583 390.152 182.384 394.195 182.384C397.486 182.384 400.166 183.159 402.235 184.711L400.965 199.098C400.73 200.038 400.354 200.697 399.837 201.073C399.367 201.402 398.709 201.566 397.862 201.566C397.11 201.566 396.029 201.472 394.618 201.284C393.208 201.049 391.891 200.932 390.669 200.932C388.882 200.932 387.284 201.19 385.873 201.707C384.51 202.225 383.287 202.953 382.206 203.894C381.124 204.834 380.137 205.986 379.244 207.349C378.397 208.713 377.598 210.264 376.846 212.004V256.505H357.381V183.794H368.877C370.851 183.794 372.215 184.147 372.967 184.852C373.719 185.557 374.26 186.78 374.589 188.519L375.647 195.783ZM455.021 211.581C455.021 209.559 454.738 207.632 454.174 205.798C453.657 203.964 452.811 202.342 451.635 200.932C450.46 199.521 448.979 198.416 447.192 197.617C445.406 196.771 443.266 196.348 440.775 196.348C436.12 196.348 432.476 197.664 429.843 200.297C427.21 202.93 425.494 206.691 424.695 211.581H455.021ZM424.413 223.147C425.024 229.964 426.952 234.948 430.196 238.098C433.487 241.248 437.765 242.824 443.031 242.824C445.711 242.824 448.015 242.518 449.943 241.907C451.917 241.248 453.634 240.543 455.091 239.791C456.596 238.992 457.936 238.286 459.111 237.675C460.333 237.017 461.532 236.688 462.708 236.688C464.212 236.688 465.388 237.252 466.234 238.38L471.876 245.433C469.807 247.831 467.527 249.829 465.035 251.428C462.543 252.979 459.957 254.225 457.277 255.165C454.597 256.059 451.894 256.67 449.167 256.999C446.44 257.375 443.807 257.563 441.268 257.563C436.19 257.563 431.442 256.74 427.022 255.095C422.65 253.402 418.818 250.934 415.527 247.69C412.282 244.399 409.72 240.332 407.839 235.489C405.959 230.646 405.018 225.028 405.018 218.633C405.018 213.697 405.818 209.042 407.416 204.67C409.062 200.297 411.413 196.489 414.469 193.244C417.525 190 421.239 187.438 425.612 185.557C429.984 183.63 434.921 182.666 440.422 182.666C445.077 182.666 449.355 183.418 453.257 184.923C457.207 186.38 460.592 188.519 463.413 191.34C466.281 194.161 468.491 197.641 470.042 201.778C471.641 205.868 472.44 210.547 472.44 215.812C472.44 217.27 472.37 218.469 472.229 219.409C472.088 220.35 471.853 221.102 471.523 221.666C471.194 222.23 470.748 222.63 470.183 222.865C469.619 223.053 468.89 223.147 467.997 223.147H424.413ZM529.443 202.695C527.609 200.579 525.611 199.098 523.449 198.252C521.333 197.405 519.076 196.982 516.678 196.982C514.327 196.982 512.188 197.429 510.26 198.322C508.333 199.216 506.664 200.626 505.253 202.554C503.89 204.434 502.832 206.856 502.079 209.818C501.327 212.78 500.951 216.306 500.951 220.397C500.951 224.44 501.257 227.872 501.868 230.693C502.479 233.514 503.349 235.795 504.477 237.534C505.653 239.274 507.063 240.543 508.709 241.343C510.354 242.095 512.188 242.471 514.21 242.471C517.642 242.471 520.51 241.789 522.814 240.426C525.165 239.062 527.374 237.135 529.443 234.643V202.695ZM548.908 151.353V256.505H536.919C534.427 256.505 532.828 255.377 532.123 253.12L530.501 246.773C529.043 248.371 527.492 249.829 525.846 251.145C524.248 252.462 522.508 253.614 520.628 254.601C518.747 255.542 516.725 256.27 514.562 256.787C512.4 257.305 510.049 257.563 507.51 257.563C503.607 257.563 500.034 256.74 496.79 255.095C493.546 253.449 490.725 251.051 488.327 247.901C485.976 244.704 484.143 240.802 482.826 236.194C481.51 231.587 480.851 226.321 480.851 220.397C480.851 214.99 481.58 209.959 483.038 205.304C484.542 200.65 486.658 196.63 489.385 193.244C492.112 189.859 495.403 187.203 499.258 185.275C503.114 183.347 507.392 182.384 512.094 182.384C516.043 182.384 519.358 182.971 522.038 184.147C524.765 185.322 527.233 186.921 529.443 188.942V151.353H548.908ZM618.036 237.323C619.869 239.438 621.844 240.919 623.96 241.766C626.123 242.612 628.356 243.035 630.66 243.035C633.058 243.035 635.22 242.612 637.148 241.766C639.123 240.872 640.815 239.485 642.226 237.605C643.636 235.677 644.718 233.185 645.47 230.129C646.222 227.073 646.598 223.382 646.598 219.057C646.598 215.201 646.293 211.934 645.682 209.254C645.07 206.527 644.153 204.293 642.931 202.554C641.756 200.814 640.298 199.545 638.559 198.745C636.819 197.946 634.797 197.546 632.493 197.546C629.437 197.546 626.781 198.228 624.524 199.592C622.314 200.908 620.151 202.859 618.036 205.445V237.323ZM618.036 192.187C620.904 189.319 624.077 187.015 627.557 185.275C631.036 183.536 634.938 182.666 639.264 182.666C643.448 182.666 647.21 183.512 650.548 185.205C653.933 186.85 656.801 189.225 659.152 192.328C661.55 195.431 663.383 199.192 664.653 203.612C665.969 207.984 666.627 212.897 666.627 218.351C666.627 224.228 665.875 229.588 664.371 234.431C662.913 239.227 660.821 243.341 658.094 246.773C655.367 250.205 652.099 252.862 648.291 254.742C644.53 256.623 640.322 257.563 635.667 257.563C633.41 257.563 631.388 257.328 629.602 256.858C627.815 256.435 626.17 255.824 624.665 255.024C623.161 254.225 621.774 253.285 620.504 252.203C619.235 251.075 618.036 249.829 616.907 248.466L616.132 252.838C615.802 254.202 615.262 255.165 614.509 255.73C613.757 256.247 612.746 256.505 611.477 256.505H598.571V151.353H618.036V192.187ZM744.369 183.794L705.157 276.041C704.546 277.357 703.794 278.345 702.9 279.003C702.054 279.661 700.691 279.99 698.81 279.99H684.352L698.105 250.652L668.907 183.794H685.974C687.526 183.794 688.725 184.147 689.571 184.852C690.417 185.557 691.029 186.38 691.405 187.32L705.228 222.089C705.745 223.453 706.192 224.84 706.568 226.25C706.991 227.614 707.39 228.977 707.767 230.341C708.613 227.567 709.577 224.793 710.658 222.019L723.494 187.32C723.87 186.286 724.552 185.44 725.539 184.781C726.526 184.123 727.608 183.794 728.783 183.794H744.369Z" fill="#909191"/>
<path fill-rule="evenodd" clip-rule="evenodd" d="M1014.58 0.521387C980.114 3.22939 947.692 14.4044 918.576 33.6084C880.968 58.4144 853.794 93.4364 839.169 135.948C812.1 214.638 835.253 301.673 897.568 355.471C944.2 395.73 1004.12 412.334 1065.58 402.026C1098.76 396.46 1132.08 381.239 1158.58 359.544C1167.1 352.563 1183.98 335.245 1190.22 327.071C1222.23 285.136 1237.13 233.948 1232.03 183.427C1225.75 121.117 1193.6 68.0354 1140.71 32.6204C1125.08 22.1554 1099.05 10.9264 1077.91 5.52839C1060.12 0.987387 1034.46 -1.04061 1014.58 0.521387ZM2054.08 193.571V287.571H2072.08H2090.08V193.571V99.5714H2072.08H2054.08V193.571ZM1364.75 110.231C1364.38 110.601 1364.08 116.904 1364.08 124.238V137.571H1388.08H1412.08V212.571V287.571H1430.08H1448.08V212.571V137.571H1472.6H1497.13L1496.85 123.821L1496.58 110.071L1431 109.814C1394.93 109.672 1365.12 109.86 1364.75 110.231ZM1097.75 134.524C1084.39 147.699 1072.25 159.431 1070.77 160.597C1069.29 161.762 1068.08 163.133 1068.08 163.644C1068.08 164.189 1079.29 164.593 1095.33 164.625L1122.58 164.678L1092.9 193.875C1076.58 209.933 1040.24 245.738 1012.15 273.443L961.076 323.815V217.193V110.571H1041.55H1122.03L1097.75 134.524ZM1945.58 145.944C1932.49 150.214 1923.87 156.125 1917.01 165.548L1912.69 171.476L1909.48 166.698C1901.46 154.798 1888.44 147.368 1871.94 145.286C1852.96 142.891 1837.38 147.979 1826.15 160.235L1820.08 166.86V156.716V146.571H1802.08H1784.08V216.071V285.571H1802.08H1820.08L1820.1 246.321C1820.11 224.733 1820.56 203.968 1821.11 200.176C1823.52 183.546 1834.49 174.171 1851.58 174.141C1858.15 174.13 1860.56 174.594 1865.08 176.737C1872.14 180.088 1876.62 184.345 1879.38 190.313C1881.52 194.959 1881.58 196.136 1881.86 240.321L1882.15 285.571H1900.57H1918.98L1919.28 240.321C1919.61 189.429 1919.41 190.916 1927.28 182.879C1933.28 176.748 1939.77 174.235 1949.58 174.248C1967.02 174.27 1977.3 182.829 1980.01 199.571C1980.62 203.326 1981.06 222.859 1981.07 245.821L1981.08 285.571H1999.14H2017.2L2016.83 237.321C2016.44 184.82 2016.36 184.019 2010.37 171.571C2006.82 164.197 1996.23 153.686 1988.32 149.696C1975.44 143.193 1958.56 141.71 1945.58 145.944ZM1749.25 145.641C1738.92 147.674 1726.49 156.346 1720.81 165.484L1718.58 169.071L1718.08 158.071L1717.58 147.071H1699.58H1681.58V217.071V287.071H1699.58H1717.58L1718.08 243.571L1718.58 200.071L1721.58 194.605C1726.72 185.235 1733.58 181.841 1749.33 180.877L1759.08 180.28V162.426V144.571L1756.33 144.681C1754.81 144.741 1751.63 145.173 1749.25 145.641ZM1572.58 146.286C1543.07 150.366 1520.2 172.593 1515.04 202.205C1513.49 211.12 1514.28 231.822 1516.49 239.865C1519.68 251.528 1524.96 260.456 1534.08 269.603C1548.03 283.613 1561.37 288.884 1583.08 288.963C1597.82 289.017 1606.8 286.9 1619.24 280.428C1629.08 275.307 1634.82 270.252 1640.4 261.779C1644.04 256.265 1649.08 246.484 1649.08 244.944C1649.08 244.739 1640.64 244.588 1630.33 244.609L1611.58 244.647L1608.78 248.681C1604.48 254.899 1595.65 258.653 1585.27 258.676C1575.65 258.697 1570.74 257.503 1565.35 253.824C1558.36 249.067 1553.42 241.512 1551.6 232.821L1550.92 229.571H1602.44H1653.95L1654.66 224.893C1655.61 218.56 1654.49 202.424 1652.6 195.071C1650.39 186.47 1643.92 173.915 1638.59 167.87C1633.12 161.667 1621.35 153.567 1613.59 150.66C1602.75 146.605 1584.41 144.649 1572.58 146.286ZM2111.42 148.815C2111.74 150.073 2124.12 181.135 2138.95 217.843L2165.9 284.584L2152.4 316.327C2144.97 333.786 2138.5 349.083 2138.01 350.321L2137.13 352.571L2155.85 352.555L2174.58 352.539L2217.45 252.123C2241.03 196.894 2260.55 150.541 2260.82 149.116L2261.32 146.525L2243.09 146.798L2224.85 147.071L2206.65 194.571C2196.63 220.696 2188.1 242.971 2187.68 244.071C2187.13 245.534 2182.14 232.784 2169.11 196.571L2151.3 147.071L2131.07 146.8L2110.85 146.529L2111.42 148.815ZM1595.66 177.136C1604.75 179.629 1613.99 190.501 1616.65 201.821L1617.29 204.571H1584.11H1550.92L1551.59 201.321C1551.96 199.534 1553.28 195.8 1554.52 193.025C1561.47 177.514 1576.25 171.807 1595.66 177.136Z" fill="#909191"/>
</svg>